<svg width="242.406250" height="50.203125" viewBox="0 0 242.406 50.2031" fill="none" xmlns="http://www.w3.org/2000/svg" xmlns:xlink="http://www.w3.org/1999/xlink">
	<desc>
			Created with Pixso.
	</desc>
	<defs>
		<clipPath id="clip27_5955">
			<rect id="logo-ycombinator.svg" rx="-0.432786" width="241.494339" height="49.337555" transform="translate(0.456223 0.432786)" fill="white" fill-opacity="0"/>
		</clipPath>
	</defs>
	<g clip-path="url(#clip27_5955)">
		<path id="Vector" d="M50.16 0L0.02 0L0.02 50.14L50.16 50.14L50.16 0Z" fill="#FFFFFF" fill-opacity="1.000000" fill-rule="nonzero"/>
		<path id="Vector" d="M23.42 28.41L14.73 12.2L18.74 12.2L23.75 22.39C23.75 22.56 23.92 22.73 24.09 22.89C24.25 23.06 24.25 23.23 24.42 23.56L24.59 23.73L24.59 23.9C24.76 24.23 24.76 24.4 24.92 24.73C25.09 24.9 25.09 25.23 25.26 25.4C25.42 24.9 25.76 24.57 25.93 23.9C26.09 23.4 26.43 22.89 26.76 22.39L31.78 12.2L35.45 12.2L26.76 28.58L26.76 38.94L23.42 38.94L23.42 28.41Z" fill="#000000" fill-opacity="1.000000" fill-rule="nonzero"/>
		<path id="Vector" d="M73.06 9.69C75.57 9.69 77.74 10.36 79.41 11.7L77.74 13.7C76.24 12.7 74.73 12.03 72.89 12.03C70.05 12.03 67.88 13.53 66.71 16.38C66.04 18.05 65.71 20.22 65.71 23.06C65.71 25.23 66.04 27.07 66.54 28.41C67.88 31.59 70.05 33.09 73.4 33.09C75.23 33.09 76.91 32.59 78.41 31.42L80.08 33.59C77.91 34.93 75.57 35.6 73.06 35.6C70.05 35.6 67.55 34.43 65.54 31.92C63.53 29.58 62.7 26.4 62.7 22.56C62.7 18.72 63.7 15.71 65.71 13.2C67.55 11.03 70.05 9.69 73.06 9.69Z" fill="#FFFFFF" fill-opacity="1.000000" fill-rule="nonzero"/>
		<path id="Vector" d="M82.59 26.24C82.59 23.23 83.26 20.89 84.76 19.22C86.27 17.55 88.1 16.54 90.44 16.54C93.12 16.54 95.29 17.55 96.8 19.72C97.97 21.39 98.47 23.73 98.47 26.57C98.47 29.91 97.46 32.59 95.63 34.26C94.29 35.43 92.62 36.1 90.61 36.1C88.1 36.1 86.27 35.26 84.76 33.42C83.26 31.75 82.59 29.25 82.59 26.24ZM94.29 21.39C93.45 19.89 92.28 19.05 90.44 19.05C88.61 19.05 87.44 19.72 86.6 21.06C85.93 22.06 85.76 23.73 85.76 25.9C85.76 28.74 86.1 30.75 86.93 31.92C87.77 33.09 88.94 33.76 90.61 33.76C92.62 33.76 93.95 32.76 94.62 30.92C94.96 29.91 95.12 28.58 95.12 26.91C95.29 24.4 94.96 22.56 94.29 21.39Z" fill="#FFFFFF" fill-opacity="1.000000" fill-rule="nonzero"/>
		<path id="Vector" d="M103.82 21.72C103.82 19.89 103.65 18.38 103.15 17.21L105.99 16.54C106.49 17.38 106.66 18.38 106.66 19.22L106.66 19.38C107.33 18.72 108 18.05 109 17.55C110.17 16.88 111.17 16.54 112.17 16.54C113.68 16.54 115.02 17.21 115.85 18.38C116.02 18.72 116.35 19.22 116.52 19.55C118.52 17.55 120.36 16.54 122.37 16.54C123.71 16.54 124.88 17.04 125.71 17.88C126.55 18.88 127.05 20.05 127.05 21.39L127.05 35.26L124.04 35.26L124.04 21.56C124.04 19.72 123.2 18.88 121.7 18.88C120.86 18.88 119.86 19.22 119.03 19.89C118.69 20.22 118.02 20.72 117.19 21.39L116.85 21.72L116.85 35.26L113.68 35.26L113.68 22.23C113.68 21.06 113.51 20.22 113.18 19.89C112.68 19.38 112.17 19.22 111.34 19.22C110 19.22 108.5 20.05 106.66 21.72L106.66 35.43L103.82 35.43L103.82 21.72Z" fill="#FFFFFF" fill-opacity="1.000000" fill-rule="nonzero"/>
		<path id="Vector" d="M132.23 9.02L135.24 8.35C135.57 9.69 135.74 11.19 135.74 13.03L135.74 17.21C135.74 18.21 135.74 18.88 135.74 19.22C137.41 17.55 139.25 16.71 141.09 16.71C143.26 16.71 145.1 17.55 146.27 19.22C147.61 20.89 148.28 23.23 148.28 26.07C148.28 29.08 147.61 31.42 146.27 33.26C144.93 35.1 143.1 35.93 140.92 35.93C139.92 35.93 139.08 35.76 138.08 35.26C137.08 34.76 136.41 34.26 135.91 33.59C135.74 34.43 135.57 35.1 135.41 35.6L132.56 35.6C132.9 34.76 133.07 33.26 133.07 30.92L133.07 13.37C132.9 11.36 132.73 9.86 132.23 9.02ZM137.08 20.39C136.58 20.72 136.07 21.22 135.74 21.72L135.74 31.25C136.91 32.76 138.41 33.42 140.25 33.42C141.76 33.42 142.93 32.92 143.6 31.75C144.43 30.42 144.93 28.58 144.93 25.9C144.93 23.56 144.6 21.89 143.76 20.89C143.1 19.89 141.92 19.38 140.25 19.38C139.25 19.22 138.08 19.55 137.08 20.39Z" fill="#FFFFFF" fill-opacity="1.000000" fill-rule="nonzero"/>
		<path id="Vector" d="M152.62 11.36C152.62 10.69 152.79 10.19 153.29 9.69C153.79 9.19 154.29 9.02 154.96 9.02C155.63 9.02 156.13 9.19 156.63 9.69C157.13 10.19 157.3 10.69 157.3 11.36C157.3 12.03 157.13 12.53 156.63 13.03C156.13 13.53 155.63 13.7 154.96 13.7C154.29 13.7 153.79 13.53 153.29 13.03C152.79 12.53 152.62 12.03 152.62 11.36ZM153.29 35.43L153.29 17.04L156.3 16.54L156.3 35.43L153.29 35.43Z" fill="#FFFFFF" fill-opacity="1.000000" fill-rule="nonzero"/>
		<path id="Vector" d="M162.82 21.72C162.82 20.39 162.82 19.55 162.65 19.22C162.65 18.72 162.32 18.21 161.98 17.38L164.82 16.54C165.33 17.55 165.49 18.38 165.49 19.38C167.33 17.55 169.34 16.54 171.34 16.54C172.35 16.54 173.18 16.71 174.02 17.21C174.85 17.71 175.52 18.38 175.85 19.22C176.19 19.89 176.36 20.55 176.36 21.39L176.36 35.43L173.52 35.43L173.52 22.89C173.52 21.39 173.35 20.39 172.85 19.89C172.35 19.38 171.68 19.05 170.84 19.05C170.17 19.05 169.17 19.38 168.17 19.89C167.16 20.39 166.33 21.06 165.66 21.72L165.66 35.43L162.82 35.43L162.82 21.72Z" fill="#FFFFFF" fill-opacity="1.000000" fill-rule="nonzero"/>
		<path id="Vector" d="M183.04 21.06L181.54 19.05C184.05 17.38 186.55 16.54 189.23 16.54C191.9 16.54 193.57 17.55 194.41 19.38C194.74 20.05 194.74 21.06 194.74 22.56L194.74 23.56L194.58 29.58C194.58 29.75 194.58 30.08 194.58 30.42C194.58 31.42 194.58 32.09 194.74 32.59C194.91 33.26 195.41 33.76 196.08 34.09L194.58 36.1C193.24 35.6 192.4 34.76 192.07 33.42C190.4 35.1 188.56 35.93 186.72 35.93C184.88 35.93 183.38 35.43 182.21 34.43C181.2 33.59 180.7 32.25 180.7 30.58C180.7 28.41 181.54 26.91 183.21 25.74C184.88 24.57 187.39 24.06 190.4 24.06C190.9 24.06 191.23 24.06 191.73 24.06L191.73 22.73C191.73 21.22 191.57 20.22 191.07 19.89C190.4 19.22 189.73 18.88 188.56 18.88C187.56 18.88 186.38 19.22 185.05 19.72C184.55 20.05 183.88 20.55 183.04 21.06ZM191.9 30.92L192.07 26.07C191.23 26.07 190.73 26.07 190.56 26.07C187.89 26.07 186.22 26.57 185.22 27.57C184.55 28.24 184.21 29.25 184.21 30.58C184.21 32.76 185.22 33.93 187.39 33.93C189.39 33.76 190.9 32.76 191.9 30.92Z" fill="#FFFFFF" fill-opacity="1.000000" fill-rule="nonzero"/>
		<path id="Vector" d="M204.27 17.04L208.95 17.04L208.11 19.38L204.27 19.38L204.27 31.25C204.27 32.25 204.44 32.92 204.77 33.42C205.1 33.76 205.77 34.09 206.61 34.09C207.28 34.09 207.95 33.93 208.45 33.76L208.78 35.6C207.78 36.1 206.78 36.27 205.61 36.27C202.77 36.27 201.43 34.93 201.43 32.09L201.43 19.38L198.92 19.38L198.92 17.04L201.26 17.04L201.26 16.71C201.26 16.37 201.43 15.04 201.6 12.87L201.6 12.36L204.6 11.7C204.27 13.7 204.27 15.54 204.27 17.04Z" fill="#FFFFFF" fill-opacity="1.000000" fill-rule="nonzero"/>
		<path id="Vector" d="M211.96 26.24C211.96 23.23 212.63 20.89 214.13 19.22C215.47 17.55 217.47 16.54 219.81 16.54C222.49 16.54 224.66 17.55 226.17 19.72C227.34 21.39 227.84 23.73 227.84 26.57C227.84 29.91 226.83 32.59 225 34.26C223.66 35.43 221.99 36.1 219.98 36.1C217.47 36.1 215.64 35.26 214.13 33.42C212.79 31.75 211.96 29.25 211.96 26.24ZM223.83 21.39C222.99 19.89 221.82 19.05 219.98 19.05C218.14 19.05 216.97 19.72 216.14 21.06C215.47 22.06 215.3 23.73 215.3 25.9C215.3 28.74 215.64 30.75 216.47 31.92C217.31 33.09 218.48 33.76 220.15 33.76C222.16 33.76 223.49 32.76 224.16 30.92C224.49 29.91 224.66 28.58 224.66 26.91C224.66 24.4 224.33 22.56 223.83 21.39Z" fill="#FFFFFF" fill-opacity="1.000000" fill-rule="nonzero"/>
		<path id="Vector" d="M233.35 21.39C233.35 19.72 233.19 18.38 232.68 17.38L235.53 16.54C236.03 17.55 236.19 18.38 236.19 19.38L236.19 19.72C237.7 17.71 239.37 16.71 241.38 16.71C241.71 16.71 242.04 16.71 242.38 16.88L241.21 20.05C240.87 19.89 240.54 19.89 240.37 19.89C239.7 19.89 238.87 20.05 238.2 20.55C237.53 21.06 236.86 21.56 236.53 22.23C236.36 22.73 236.19 23.4 236.19 24.23L236.19 35.76L233.35 35.76L233.35 21.39Z" fill="#FFFFFF" fill-opacity="1.000000" fill-rule="nonzero"/>
	</g>
</svg>
