<svg width="242.000000" height="44.000000" viewBox="0 0 242 44" fill="none" xmlns="http://www.w3.org/2000/svg" xmlns:xlink="http://www.w3.org/1999/xlink">
	<desc>
			Created with Pixso.
	</desc>
	<defs>
		<clipPath id="clip27_5970">
			<rect id="logo-coinbase.svg" rx="-0.500000" width="241.000000" height="43.000000" transform="translate(0.500000 0.500000)" fill="white" fill-opacity="0"/>
		</clipPath>
	</defs>
	<g clip-path="url(#clip27_5970)">
		<path id="Vector" d="M49.31 12.18C40.58 12.18 33.75 18.81 33.75 27.69C33.75 36.57 40.4 43.14 49.31 43.14C58.22 43.14 64.98 36.45 64.98 27.63C64.98 18.87 58.33 12.18 49.31 12.18ZM49.36 36.74C44.39 36.74 40.75 32.88 40.75 27.69C40.75 22.44 44.33 18.58 49.31 18.58C54.34 18.58 57.98 22.5 57.98 27.69C57.98 32.88 54.34 36.74 49.36 36.74ZM66.89 18.93L71.23 18.93L71.23 42.56L78.17 42.56L78.17 12.76L66.89 12.76L66.89 18.93ZM16.28 18.58C19.93 18.58 22.82 20.83 23.92 24.17L31.26 24.17C29.93 17.03 24.03 12.18 16.34 12.18C7.61 12.18 0.78 18.81 0.78 27.69C0.78 36.57 7.44 43.14 16.34 43.14C23.86 43.14 29.88 38.3 31.21 31.09L23.92 31.09C22.88 34.43 19.99 36.74 16.34 36.74C11.31 36.74 7.78 32.88 7.78 27.69C7.78 22.45 11.25 18.58 16.28 18.58ZM198.76 24.81L193.67 24.06C191.24 23.72 189.51 22.91 189.51 21.01C189.51 18.93 191.76 17.89 194.83 17.89C198.18 17.89 200.32 19.33 200.78 21.7L207.49 21.7C206.74 15.7 202.11 12.19 195 12.19C187.65 12.19 182.8 15.93 182.8 21.24C182.8 26.31 185.98 29.25 192.4 30.17L197.49 30.92C199.97 31.27 201.36 32.25 201.36 34.09C201.36 36.46 198.93 37.44 195.58 37.44C191.47 37.44 189.16 35.76 188.81 33.23L181.99 33.23C182.62 39.05 187.19 43.14 195.52 43.14C203.1 43.14 208.13 39.68 208.13 33.74C208.13 28.44 204.48 25.67 198.76 24.81ZM74.7 0.48C72.15 0.48 70.25 2.33 70.25 4.86C70.25 7.4 72.15 9.24 74.7 9.24C77.24 9.24 79.15 7.4 79.15 4.86C79.15 2.33 77.24 0.48 74.7 0.48ZM176.55 22.96C176.55 16.51 172.62 12.18 164.29 12.18C156.42 12.18 152.03 16.16 151.16 22.27L158.04 22.27C158.39 19.91 160.24 17.95 164.17 17.95C167.7 17.95 169.44 19.51 169.44 21.41C169.44 23.89 166.26 24.52 162.32 24.93C157 25.5 150.41 27.35 150.41 34.26C150.41 39.63 154.4 43.08 160.76 43.08C165.74 43.08 168.86 41.01 170.42 37.72C170.65 40.66 172.85 42.56 175.92 42.56L179.96 42.56L179.96 36.4L176.55 36.4L176.55 22.96L176.55 22.96ZM169.72 30.46C169.72 34.44 166.25 37.38 162.03 37.38C159.42 37.38 157.23 36.28 157.23 33.98C157.23 31.04 160.76 30.23 164 29.88C167.12 29.6 168.85 28.9 169.72 27.58L169.72 30.46ZM132.88 12.18C129 12.18 125.77 13.8 123.45 16.51L123.45 0.19L116.51 0.19L116.51 42.57L123.34 42.57L123.34 38.65C125.65 41.47 128.95 43.14 132.88 43.14C141.21 43.14 147.52 36.57 147.52 27.69C147.52 18.81 141.1 12.18 132.88 12.18ZM131.84 36.74C126.87 36.74 123.22 32.88 123.22 27.69C123.22 22.5 126.92 18.58 131.89 18.58C136.93 18.58 140.46 22.45 140.46 27.69C140.46 32.88 136.81 36.74 131.84 36.74ZM99.91 12.18C95.4 12.18 92.45 14.03 90.72 16.62L90.72 12.76L83.83 12.76L83.83 42.56L90.77 42.56L90.77 26.37C90.77 21.81 93.67 18.58 97.95 18.58C101.94 18.58 104.43 21.41 104.43 25.5L104.43 42.57L111.36 42.57L111.36 24.98C111.37 17.49 107.49 12.18 99.91 12.18ZM241.21 26.71C241.21 18.18 234.96 12.18 226.58 12.18C217.67 12.18 211.13 18.87 211.13 27.69C211.13 36.97 218.13 43.14 226.69 43.14C233.92 43.14 239.59 38.87 241.03 32.82L233.8 32.82C232.76 35.47 230.22 36.97 226.8 36.97C222.35 36.97 219 34.21 218.24 29.36L241.21 29.36L241.21 26.71L241.21 26.71ZM218.65 24.41C219.75 20.25 222.88 18.24 226.46 18.24C230.39 18.24 233.4 20.49 234.1 24.41L218.65 24.41Z" fill="#FFFFFF" fill-opacity="1.000000" fill-rule="nonzero"/>
	</g>
</svg>
