<svg width="52.000000" height="50.000000" viewBox="0 0 52 50" fill="none" xmlns="http://www.w3.org/2000/svg" xmlns:xlink="http://www.w3.org/1999/xlink">
	<desc>
			Created with Pixso.
	</desc>
	<defs>
		<clipPath id="clip27_6190">
			<rect id="logo.svg" width="52.000000" height="50.000000" fill="white" fill-opacity="0"/>
		</clipPath>
	</defs>
	<g clip-path="url(#clip27_6190)">
		<path id="Vector" d="M26 48.55C13.03 48.55 2.51 38.04 2.51 25.06C2.51 12.09 13.03 1.58 26 1.58C38.97 1.58 49.48 12.09 49.48 25.06C49.48 38.04 38.97 48.55 26 48.55Z" stroke="#FFFFFF" stroke-opacity="1.000000" stroke-width="1.699680"/>
		<path id="Vector" d="M16.96 4.75C18.24 4.99 19.87 5.62 21.76 6.63C25.53 8.63 30.16 12.02 34.72 16.33C39.28 20.64 42.87 25.01 44.99 28.58C46.05 30.37 46.72 31.91 46.98 33.12C47.25 34.36 47.03 35.02 46.71 35.32C46.38 35.63 45.69 35.83 44.37 35.58C43.1 35.33 41.46 34.7 39.57 33.7C35.8 31.69 31.17 28.3 26.61 23.99C22.05 19.68 18.47 15.31 16.35 11.75C15.28 9.96 14.61 8.42 14.36 7.21C14.09 5.97 14.3 5.31 14.63 5C14.95 4.69 15.65 4.49 16.96 4.75Z" stroke="#FFFFFF" stroke-opacity="1.000000" stroke-width="1.699680"/>
		<path id="Vector" d="M38.48 7.22C38.2 8.45 37.5 10.03 36.4 11.85C34.2 15.5 30.5 19.97 25.82 24.4C21.13 28.83 16.4 32.32 12.54 34.4C10.61 35.44 8.94 36.11 7.64 36.37C6.3 36.64 5.6 36.45 5.28 36.15C4.96 35.84 4.75 35.19 5.04 33.91C5.33 32.69 6.03 31.11 7.13 29.28C9.33 25.64 13.03 21.16 17.71 16.74C22.39 12.31 27.13 8.82 30.98 6.74C32.92 5.69 34.58 5.03 35.88 4.77C37.23 4.49 37.92 4.69 38.24 4.99C38.56 5.29 38.77 5.95 38.48 7.22Z" stroke="#FFFFFF" stroke-opacity="1.000000" stroke-width="1.699680"/>
	</g>
</svg>
